0
SECTION
2
HEADER
9
$INSUNITS
70
4
9
$ACADVER
1
AC1014
9
$HANDSEED
5
FFFF
0
ENDSEC
0
SECTION
2
TABLES
0
TABLE
2
VPORT
5
8
100
AcDbSymbolTable
0
ENDTAB
0
TABLE
2
LTYPE
5
5
100
AcDbSymbolTable
0
LTYPE
5
14
100
AcDbSymbolTableRecord
100
AcDbLinetypeTableRecord
2
BYBLOCK
70
0
0
LTYPE
5
15
100
AcDbSymbolTableRecord
100
AcDbLinetypeTableRecord
2
BYLAYER
70
0
0
ENDTAB
0
TABLE
2
LAYER
5
2
100
AcDbSymbolTable
70
2
0
LAYER
5
50
100
AcDbSymbolTableRecord
100
AcDbLayerTableRecord
2
0
70
0
6
CONTINUOUS
0
ENDTAB
0
TABLE
2
STYLE
5
3
100
AcDbSymbolTable
70
1
0
STYLE
5
11
100
AcDbSymbolTableRecord
100
AcDbTextStyleTableRecord
2
STANDARD
70
0
0
ENDTAB
0
TABLE
2
VIEW
5
6
100
AcDbSymbolTable
70
0
0
ENDTAB
0
TABLE
2
UCS
5
7
100
AcDbSymbolTable
70
0
0
ENDTAB
0
TABLE
2
APPID
5
9
100
AcDbSymbolTable
70
2
0
APPID
5
12
100
AcDbSymbolTableRecord
100
AcDbRegAppTableRecord
2
ACAD
70
0
0
ENDTAB
0
TABLE
2
DIMSTYLE
5
A
100
AcDbSymbolTable
70
1
0
ENDTAB
0
TABLE
2
BLOCK_RECORD
5
1
100
AcDbSymbolTable
70
1
0
BLOCK_RECORD
5
1F
100
AcDbSymbolTableRecord
100
AcDbBlockTableRecord
2
*MODEL_SPACE
0
BLOCK_RECORD
5
1B
100
AcDbSymbolTableRecord
100
AcDbBlockTableRecord
2
*PAPER_SPACE
0
ENDTAB
0
ENDSEC
0
SECTION
2
BLOCKS
0
BLOCK
5
20
100
AcDbEntity
100
AcDbBlockBegin
2
*MODEL_SPACE
0
ENDBLK
5
21
100
AcDbEntity
100
AcDbBlockEnd
0
BLOCK
5
1C
100
AcDbEntity
100
AcDbBlockBegin
2
*PAPER_SPACE
0
ENDBLK
5
1D
100
AcDbEntity
100
AcDbBlockEnd
0
ENDSEC
0
SECTION
2
ENTITIES
0
LWPOLYLINE
5
100
100
AcDbEntity
8
0
100
AcDbPolyline
90
40
70
1
43
0.0
10
-136.69367218017572
20
59.20734024047853
10
-140.69367218017575
20
63.20734024047853
10
-180.69367218017564
20
63.20734024047853
10
-184.69367218017567
20
59.207340240478516
10
-228.69367218017572
20
59.207340240478473
10
-232.69367218017572
20
63.207340240478516
10
-232.69367218017578
20
107.20734024047843
10
-228.69367218017572
20
111.20734024047843
10
-228.69367218017575
20
175.20734024047843
10
-232.69367218017578
20
179.20734024047846
10
-232.69367218017578
20
227.20734024047846
10
-228.69367218017578
20
231.20734024047849
10
-228.69367218017578
20
295.20734024047852
10
-232.69367218017584
20
299.20734024047852
10
-232.69367218017584
20
343.20734024047846
10
-228.69367218017578
20
347.2073402404784
10
-184.69367218017578
20
347.20734024047852
10
-180.69367218017575
20
343.20734024047852
10
-140.69367218017587
20
343.20734024047852
10
-136.69367218017581
20
347.20734024047852
10
-88.69367218017581
20
347.20734024047852
10
-84.693672180175781
20
343.20734024047852
10
-44.693672180175881
20
343.20734024047852
10
-40.693672180175859
20
347.20734024047852
10
3.3063278198241797
20
347.20734024047852
10
7.306327819824201
20
343.20734024047852
10
7.3063278198242188
20
299.20734024047863
10
3.3063278198241797
20
295.20734024047852
10
3.3063278198242152
20
231.20734024047857
10
7.3063278198242188
20
227.20734024047854
10
7.3063278198242188
20
179.20734024047852
10
3.3063278198242152
20
175.20734024047846
10
3.3063278198242152
20
111.2073402404785
10
7.3063278198242543
20
107.20734024047849
10
7.3063278198242188
20
63.20734024047853
10
3.3063278198242152
20
59.20734024047853
10
-40.693672180175824
20
59.20734024047853
10
-44.693672180175867
20
63.20734024047853
10
-84.693672180175739
20
63.20734024047853
10
-88.693672180175781
20
59.20734024047853
0
LWPOLYLINE
5
101
100
AcDbEntity
8
0
100
AcDbPolyline
90
24
70
1
43
0.0
10
-136.69367218017572
20
111.20734024047847
10
-88.693672180175781
20
111.20734024047849
10
-84.693672180175824
20
107.20734024047854
10
-46.350526429668221
20
107.20734024047854
10
-40.693672180175824
20
112.86419448997091
10
-40.693672180175824
20
175.2073402404784
10
-44.69367218017581
20
179.20734024047852
10
-44.69367218017581
20
227.20734024047854
10
-40.693672180175824
20
231.20734024047863
10
-40.693672180175852
20
293.55048599098615
10
-46.35052642966825
20
299.20734024047852
10
-84.693672180175838
20
299.20734024047852
10
-88.693672180175795
20
295.20734024047852
10
-136.69367218017581
20
295.20734024047852
10
-140.69367218017575
20
299.20734024047846
10
-179.03681793068336
20
299.20734024047846
10
-184.69367218017572
20
293.55048599098609
10
-184.69367218017572
20
231.2073402404786
10
-180.69367218017575
20
227.20734024047852
10
-180.69367218017575
20
179.20734024047846
10
-184.69367218017572
20
175.2073402404784
10
-184.6936721801757
20
112.86419448997087
10
-179.0368179306833
20
107.2073402404785
10
-140.69367218017567
20
107.20734024047852
0
LWPOLYLINE
5
102
100
AcDbEntity
8
0
100
AcDbPolyline
90
4
70
1
43
0.0
10
-6.7941772435641212
20
196.13627242861301
42
-0.99999999999999989
10
-9.6226043683103057
20
193.30784530386683
10
-10.107885742548888
20
193.79312667810538
42
-0.99999999999999989
10
-7.2794586178026677
20
196.62155380285162
0
LWPOLYLINE
5
103
100
AcDbEntity
8
0
100
AcDbPolyline
90
4
70
1
43
0.0
10
-23.764739992041282
20
193.30784530386688
42
-0.99999999999999989
10
-26.593167116787466
20
196.13627242861304
10
-26.107885742548866
20
196.62155380285168
42
-0.99999999999999989
10
-23.279458617802682
20
193.79312667810541
0
ARC
5
104
100
AcDbEntity
8
0
100
AcDbCircle
10
-104.20839080593717
20
74.722058866239976
30
1.3695577161243477e-06
40
1.999999999999996
210
0
220
0
230
1
100
AcDbArc
50
-134.99999999999943
51
44.999999999999709
0
LINE
5
105
100
AcDbEntity
8
0
100
AcDbLine
10
-105.62260436831025
20
73.30784530386687
30
1.3695577161243477e-06
11
-106.1078857425489
21
73.793126678105381
31
1.3695577161243477e-06
0
ARC
5
106
100
AcDbEntity
8
0
100
AcDbCircle
10
-104.6936721801758
20
75.207340240478544
30
1.3695577161243477e-06
40
2.0000000000000338
210
0
220
-0
230
1
100
AcDbArc
50
44.999999999998849
51
225.00000000000117
0
LINE
5
107
100
AcDbEntity
8
0
100
AcDbLine
10
-103.27945861780265
20
76.621553802851636
30
1.3695577161243477e-06
11
-102.79417724356406
21
76.136272428613069
31
1.3695577161243477e-06
0
ARC
5
108
100
AcDbEntity
8
0
100
AcDbCircle
10
-104.20839080593723
20
91.69262161471714
30
1.3695577161243477e-06
40
2.0000000000000213
210
0
220
0
230
1
100
AcDbArc
50
-45.000000000000561
51
135.0000000000006
0
LINE
5
109
100
AcDbEntity
8
0
100
AcDbLine
10
-102.79417724356414
20
90.27840805234402
30
1.3695577161243477e-06
11
-103.27945861780267
21
89.793126678105395
31
1.3695577161243477e-06
0
ARC
5
110
100
AcDbEntity
8
0
100
AcDbCircle
10
-104.6936721801758
20
91.207340240478516
30
1.3695577161243477e-06
40
2.0000000000000338
210
0
220
0
230
1
100
AcDbArc
50
134.99999999999943
51
315
0
LINE
5
111
100
AcDbEntity
8
0
100
AcDbLine
10
-106.1078857425489
20
92.621553802851651
30
1.3695577161243477e-06
11
-105.62260436831036
21
93.106835177090247
31
1.3695577161243477e-06
0
LWPOLYLINE
5
112
100
AcDbEntity
8
0
100
AcDbPolyline
90
4
70
1
43
0.0
10
-9.6226043683103057
20
213.10683517709023
42
-0.99999999999999989
10
-6.7941772435641212
20
210.27840805234405
10
-7.2794586178026677
20
209.79312667810541
42
-0.99999999999999989
10
-10.107885742548888
20
212.62155380285165
0
LWPOLYLINE
5
113
100
AcDbEntity
8
0
100
AcDbPolyline
90
4
70
1
43
0.0
10
-26.593167116787484
20
210.27840805234402
42
-0.99999999999999989
10
-23.764739992041264
20
213.1068351770902
10
-23.279458617802664
20
212.62155380285162
42
-0.99999999999999989
10
-26.107885742548884
20
209.79312667810544
0
LWPOLYLINE
5
114
100
AcDbEntity
8
0
100
AcDbPolyline
90
4
70
1
43
0.0
10
-105.62260436831032
20
333.10683517709015
42
-0.99999999999999989
10
-102.79417724356409
20
330.27840805234399
10
-103.27945861780272
20
329.7931266781053
42
-0.99999999999999989
10
-106.1078857425489
20
332.62155380285162
0
ARC
5
115
100
AcDbEntity
8
0
100
AcDbCircle
10
-104.20839080593726
20
314.72205886623988
30
1.3695577161243477e-06
40
2.0000000000000084
210
0
220
0
230
1
100
AcDbArc
50
-135.00000000000031
51
45.000000000001151
0
LINE
5
116
100
AcDbEntity
8
0
100
AcDbLine
10
-105.62260436831038
20
313.30784530386677
30
1.3695577161243477e-06
11
-106.10788574254894
21
313.79312667810541
31
1.3695577161243477e-06
0
ARC
5
117
100
AcDbEntity
8
0
100
AcDbCircle
10
-104.69367218017582
20
315.20734024047852
30
1.3695577161243477e-06
40
2.0000000000000338
210
0
220
-0
230
1
100
AcDbArc
50
45
51
224.99999999999972
0
LINE
5
118
100
AcDbEntity
8
0
100
AcDbLine
10
-103.27945861780272
20
316.62155380285162
30
1.3695577161243477e-06
11
-102.79417724356415
21
316.13627242861304
31
1.3695577161243477e-06
0
LWPOLYLINE
5
119
100
AcDbEntity
8
0
100
AcDbPolyline
90
4
70
1
43
0.0
10
-215.76473999204126
20
193.3078453038668
42
-0.99999999999999989
10
-218.59316711678744
20
196.13627242861298
10
-218.10788574254886
20
196.62155380285159
42
-0.99999999999999989
10
-215.27945861780267
20
193.79312667810535
0
LWPOLYLINE
5
120
100
AcDbEntity
8
0
100
AcDbPolyline
90
4
70
1
43
0.0
10
-198.79417724356404
20
196.13627242861301
42
-0.99999999999999989
10
-201.62260436831031
20
193.30784530386683
10
-202.10788574254892
20
193.79312667810538
42
-0.99999999999999989
10
-199.27945861780267
20
196.62155380285157
0
ARC
5
121
100
AcDbEntity
8
0
100
AcDbCircle
10
-121.17895355441433
20
74.722058866239976
30
1.3695577161243477e-06
40
1.999999999999996
210
0
220
0
230
1
100
AcDbArc
50
135
51
314.99999999999972
0
LINE
5
122
100
AcDbEntity
8
0
100
AcDbLine
10
-122.59316711678743
20
76.136272428613069
30
1.3695577161243477e-06
11
-122.1078857425488
21
76.621553802851594
31
1.3695577161243477e-06
0
ARC
5
123
100
AcDbEntity
8
0
100
AcDbCircle
10
-120.69367218017572
20
75.207340240478544
30
1.3695577161243477e-06
40
2.0000000000000338
210
0
220
0
230
1
100
AcDbArc
50
-45.00000000000086
51
135.0000000000006
0
LINE
5
124
100
AcDbEntity
8
0
100
AcDbLine
10
-119.27945861780262
20
73.793126678105395
30
1.3695577161243477e-06
11
-119.76473999204124
21
73.30784530386687
31
1.3695577161243477e-06
0
ARC
5
125
100
AcDbEntity
8
0
100
AcDbCircle
10
-121.17895355441428
20
91.69262161471714
30
1.3695577161243477e-06
40
2.0000000000000338
210
0
220
-0
230
1
100
AcDbArc
50
44.999999999999709
51
225.00000000000057
0
LINE
5
126
100
AcDbEntity
8
0
100
AcDbLine
10
-119.76473999204116
20
93.106835177090247
30
1.3695577161243477e-06
11
-119.27945861780259
21
92.621553802851651
31
1.3695577161243477e-06
0
ARC
5
127
100
AcDbEntity
8
0
100
AcDbCircle
10
-120.69367218017572
20
91.207340240478516
30
1.3695577161243477e-06
40
2.0000000000000338
210
0
220
0
230
1
100
AcDbArc
50
-134.99999999999972
51
45
0
LINE
5
128
100
AcDbEntity
8
0
100
AcDbLine
10
-122.10788574254883
20
89.793126678105395
30
1.3695577161243477e-06
11
-122.59316711678737
21
90.27840805234402
31
1.3695577161243477e-06
0
LWPOLYLINE
5
129
100
AcDbEntity
8
0
100
AcDbPolyline
90
4
70
1
43
0.0
10
-218.59316711678744
20
210.27840805234399
42
-0.99999999999999989
10
-215.76473999204126
20
213.10683517709015
10
-215.27945861780265
20
212.62155380285162
42
-0.99999999999999989
10
-218.10788574254889
20
209.79312667810535
0
LWPOLYLINE
5
130
100
AcDbEntity
8
0
100
AcDbPolyline
90
4
70
1
43
0.0
10
-201.62260436831025
20
213.1068351770902
42
-0.99999999999999989
10
-198.79417724356409
20
210.27840805234393
10
-199.2794586178027
20
209.79312667810541
42
-0.99999999999999989
10
-202.10788574254889
20
212.62155380285157
0
ARC
5
131
100
AcDbEntity
8
0
100
AcDbCircle
10
-121.17895355441442
20
331.69262161471704
30
1.3695577161243477e-06
40
1.9999999999999836
210
0
220
-0
230
1
100
AcDbArc
50
45.000000000000568
51
224.99999999999883
0
LINE
5
132
100
AcDbEntity
8
0
100
AcDbLine
10
-119.76473999204134
20
333.10683517709015
30
1.3695577161243477e-06
11
-119.2794586178027
21
332.62155380285162
31
1.3695577161243477e-06
0
ARC
5
133
100
AcDbEntity
8
0
100
AcDbCircle
10
-120.69367218017581
20
331.20734024047852
30
1.3695577161243477e-06
40
2.0000000000000338
210
0
220
0
230
1
100
AcDbArc
50
-135.0000000000006
51
45
0
LINE
5
134
100
AcDbEntity
8
0
100
AcDbLine
10
-122.10788574254894
20
329.79312667810541
30
1.3695577161243477e-06
11
-122.59316711678753
21
330.27840805234399
31
1.3695577161243477e-06
0
ARC
5
135
100
AcDbEntity
8
0
100
AcDbCircle
10
-121.17895355441435
20
314.72205886623988
30
1.3695577161243477e-06
40
2.0000000000000338
210
0
220
0
230
1
100
AcDbArc
50
134.99999999999915
51
315
0
LINE
5
136
100
AcDbEntity
8
0
100
AcDbLine
10
-122.59316711678747
20
316.13627242861304
30
1.3695577161243477e-06
11
-122.10788574254892
21
316.62155380285162
31
1.3695577161243477e-06
0
ARC
5
137
100
AcDbEntity
8
0
100
AcDbCircle
10
-120.69367218017578
20
315.20734024047852
30
1.3695577161243477e-06
40
2.0000000000000338
210
0
220
0
230
1
100
AcDbArc
50
-45
51
135.0000000000006
0
LINE
5
138
100
AcDbEntity
8
0
100
AcDbLine
10
-119.27945861780267
20
313.79312667810541
30
1.3695577161243477e-06
11
-119.76473999204124
21
313.30784530386677
31
1.3695577161243477e-06
0
CIRCLE
5
139
100
AcDbEntity
8
0
100
AcDbCircle
10
-112.69367218017581
20
323.20734024047852
30
1.3695577161243477e-06
40
7.0000000000000204
210
0
220
0
230
1
0
CIRCLE
5
140
100
AcDbEntity
8
0
100
AcDbCircle
10
16.693672180175785
20
203.20734024047852
30
-1.3695577161243477e-06
40
7.0000000000000204
210
0
220
0
230
-1
0
CIRCLE
5
141
100
AcDbEntity
8
0
100
AcDbCircle
10
64.693672180175795
20
99.20734024047853
30
-1.3695577161243477e-06
40
2.0000000000000018
210
0
220
0
230
-1
0
CIRCLE
5
142
100
AcDbEntity
8
0
100
AcDbCircle
10
32.69367218017581
20
139.20734024047852
30
-1.3695577161243477e-06
40
1.9999999999999951
210
0
220
0
230
-1
0
CIRCLE
5
143
100
AcDbEntity
8
0
100
AcDbCircle
10
48.693672180175795
20
99.20734024047853
30
-1.3695577161243477e-06
40
2.0000000000000018
210
0
220
0
230
-1
0
CIRCLE
5
144
100
AcDbEntity
8
0
100
AcDbCircle
10
32.693672180175788
20
155.20734024047852
30
-1.3695577161243477e-06
40
1.9999999999999951
210
0
220
0
230
-1
0
CIRCLE
5
145
100
AcDbEntity
8
0
100
AcDbCircle
10
32.69367218017581
20
123.20734024047852
30
-1.3695577161243477e-06
40
2.0000000000000018
210
0
220
0
230
-1
0
CIRCLE
5
146
100
AcDbEntity
8
0
100
AcDbCircle
10
32.693672180175817
20
99.207340240478516
30
-1.3695577161243477e-06
40
2.0000000000000018
210
0
220
0
230
-1
0
CIRCLE
5
147
100
AcDbEntity
8
0
100
AcDbCircle
10
80.693672180175781
20
99.20734024047853
30
-1.3695577161243477e-06
40
2.0000000000000018
210
0
220
0
230
-1
0
CIRCLE
5
148
100
AcDbEntity
8
0
100
AcDbCircle
10
40.693672180175788
20
67.207340240478572
30
-1.3695577161243477e-06
40
2.0000000000000018
210
0
220
0
230
-1
0
CIRCLE
5
149
100
AcDbEntity
8
0
100
AcDbCircle
10
32.693672180175788
20
67.207340240478572
30
-1.3695577161243477e-06
40
2.0000000000000018
210
0
220
0
230
-1
0
CIRCLE
5
150
100
AcDbEntity
8
0
100
AcDbCircle
10
0.69367218017578836
20
107.20734024047852
30
-1.3695577161243477e-06
40
2.0000000000000018
210
0
220
0
230
-1
0
CIRCLE
5
151
100
AcDbEntity
8
0
100
AcDbCircle
10
0.69367218017578836
20
187.20734024047852
30
-1.3695577161243477e-06
40
1.9999999999999969
210
0
220
0
230
-1
0
CIRCLE
5
152
100
AcDbEntity
8
0
100
AcDbCircle
10
32.693672180175817
20
187.20734024047854
30
-1.3695577161243477e-06
40
1.9999999999999969
210
0
220
0
230
-1
0
CIRCLE
5
153
100
AcDbEntity
8
0
100
AcDbCircle
10
96.693672180175781
20
67.207340240478544
30
-1.3695577161243477e-06
40
2.0000000000000018
210
0
220
0
230
-1
0
CIRCLE
5
154
100
AcDbEntity
8
0
100
AcDbCircle
10
96.69367218017581
20
99.20734024047853
30
-1.3695577161243477e-06
40
2.0000000000000018
210
0
220
0
230
-1
0
CIRCLE
5
155
100
AcDbEntity
8
0
100
AcDbCircle
10
0.69367218017578836
20
67.207340240478572
30
-1.3695577161243477e-06
40
2.0000000000000018
210
0
220
0
230
-1
0
CIRCLE
5
156
100
AcDbEntity
8
0
100
AcDbCircle
10
0.69367218017578836
20
99.207340240478516
30
-1.3695577161243477e-06
40
2.0000000000000018
210
0
220
0
230
-1
0
CIRCLE
5
157
100
AcDbEntity
8
0
100
AcDbCircle
10
-64.693672180175824
20
307.20734024047852
30
1.3695577161243477e-06
40
2.0000000000000018
210
0
220
0
230
1
0
CIRCLE
5
158
100
AcDbEntity
8
0
100
AcDbCircle
10
-32.693672180175817
20
267.20734024047852
30
1.3695577161243477e-06
40
1.9999999999999951
210
0
220
0
230
1
0
CIRCLE
5
159
100
AcDbEntity
8
0
100
AcDbCircle
10
-48.693672180175824
20
307.20734024047852
30
1.3695577161243477e-06
40
2.0000000000000018
210
0
220
0
230
1
0
CIRCLE
5
160
100
AcDbEntity
8
0
100
AcDbCircle
10
-32.69367218017581
20
251.20734024047857
30
1.3695577161243477e-06
40
1.9999999999999951
210
0
220
0
230
1
0
CIRCLE
5
161
100
AcDbEntity
8
0
100
AcDbCircle
10
-32.693672180175817
20
283.20734024047852
30
1.3695577161243477e-06
40
2.0000000000000018
210
0
220
0
230
1
0
CIRCLE
5
162
100
AcDbEntity
8
0
100
AcDbCircle
10
-32.693672180175852
20
307.20734024047852
30
1.3695577161243477e-06
40
2.0000000000000018
210
0
220
0
230
1
0
CIRCLE
5
163
100
AcDbEntity
8
0
100
AcDbCircle
10
-80.693672180175824
20
307.20734024047852
30
1.3695577161243477e-06
40
2.0000000000000018
210
0
220
0
230
1
0
CIRCLE
5
164
100
AcDbEntity
8
0
100
AcDbCircle
10
-40.693672180175824
20
339.20734024047846
30
1.3695577161243477e-06
40
2.0000000000000018
210
0
220
0
230
1
0
CIRCLE
5
165
100
AcDbEntity
8
0
100
AcDbCircle
10
-32.693672180175817
20
339.20734024047846
30
1.3695577161243477e-06
40
2.0000000000000018
210
0
220
0
230
1
0
CIRCLE
5
166
100
AcDbEntity
8
0
100
AcDbCircle
10
-0.69367218017582388
20
299.20734024047852
30
1.3695577161243477e-06
40
2.0000000000000018
210
0
220
0
230
1
0
CIRCLE
5
167
100
AcDbEntity
8
0
100
AcDbCircle
10
-0.69367218017578836
20
219.20734024047857
30
1.3695577161243477e-06
40
1.9999999999999969
210
0
220
0
230
1
0
CIRCLE
5
168
100
AcDbEntity
8
0
100
AcDbCircle
10
-32.693672180175817
20
219.20734024047852
30
1.3695577161243477e-06
40
1.9999999999999969
210
0
220
0
230
1
0
CIRCLE
5
169
100
AcDbEntity
8
0
100
AcDbCircle
10
-96.693672180175824
20
339.20734024047846
30
1.3695577161243477e-06
40
2.0000000000000018
210
0
220
0
230
1
0
CIRCLE
5
170
100
AcDbEntity
8
0
100
AcDbCircle
10
-96.693672180175824
20
307.20734024047852
30
1.3695577161243477e-06
40
2.0000000000000018
210
0
220
0
230
1
0
CIRCLE
5
171
100
AcDbEntity
8
0
100
AcDbCircle
10
-0.69367218017582388
20
339.20734024047846
30
1.3695577161243477e-06
40
2.0000000000000018
210
0
220
0
230
1
0
CIRCLE
5
172
100
AcDbEntity
8
0
100
AcDbCircle
10
-0.69367218017582388
20
307.20734024047857
30
1.3695577161243477e-06
40
2.0000000000000018
210
0
220
0
230
1
0
CIRCLE
5
173
100
AcDbEntity
8
0
100
AcDbCircle
10
-208.69367218017578
20
203.20734024047849
30
1.3695577161243477e-06
40
7.0000000000000204
210
0
220
-0
230
1
0
CIRCLE
5
174
100
AcDbEntity
8
0
100
AcDbCircle
10
-160.69367218017572
20
99.207340240478487
30
1.3695577161243477e-06
40
2.0000000000000018
210
0
220
-0
230
1
0
CIRCLE
5
175
100
AcDbEntity
8
0
100
AcDbCircle
10
-192.69367218017572
20
139.20734024047846
30
1.3695577161243477e-06
40
1.9999999999999951
210
0
220
-0
230
1
0
CIRCLE
5
176
100
AcDbEntity
8
0
100
AcDbCircle
10
-176.6936721801757
20
99.207340240478516
30
1.3695577161243477e-06
40
2.0000000000000018
210
0
220
-0
230
1
0
CIRCLE
5
177
100
AcDbEntity
8
0
100
AcDbCircle
10
-192.69367218017575
20
155.20734024047846
30
1.3695577161243477e-06
40
1.9999999999999951
210
0
220
-0
230
1
0
CIRCLE
5
178
100
AcDbEntity
8
0
100
AcDbCircle
10
-192.69367218017572
20
123.20734024047846
30
1.3695577161243477e-06
40
2.0000000000000018
210
0
220
-0
230
1
0
CIRCLE
5
179
100
AcDbEntity
8
0
100
AcDbCircle
10
-192.69367218017567
20
99.207340240478459
30
1.3695577161243477e-06
40
2.0000000000000018
210
0
220
-0
230
1
0
CIRCLE
5
180
100
AcDbEntity
8
0
100
AcDbCircle
10
-144.69367218017572
20
99.207340240478516
30
1.3695577161243477e-06
40
2.0000000000000018
210
0
220
-0
230
1
0
CIRCLE
5
181
100
AcDbEntity
8
0
100
AcDbCircle
10
-184.6936721801757
20
67.207340240478544
30
1.3695577161243477e-06
40
2.0000000000000018
210
0
220
-0
230
1
0
CIRCLE
5
182
100
AcDbEntity
8
0
100
AcDbCircle
10
-192.69367218017572
20
67.207340240478544
30
1.3695577161243477e-06
40
2.0000000000000018
210
0
220
-0
230
1
0
CIRCLE
5
183
100
AcDbEntity
8
0
100
AcDbCircle
10
-224.69367218017572
20
107.20734024047846
30
1.3695577161243477e-06
40
2.0000000000000018
210
0
220
-0
230
1
0
CIRCLE
5
184
100
AcDbEntity
8
0
100
AcDbCircle
10
-224.69367218017572
20
187.20734024047843
30
1.3695577161243477e-06
40
1.9999999999999969
210
0
220
-0
230
1
0
CIRCLE
5
185
100
AcDbEntity
8
0
100
AcDbCircle
10
-192.69367218017572
20
187.20734024047852
30
1.3695577161243477e-06
40
1.9999999999999969
210
0
220
-0
230
1
0
CIRCLE
5
186
100
AcDbEntity
8
0
100
AcDbCircle
10
-128.69367218017572
20
67.207340240478544
30
1.3695577161243477e-06
40
2.0000000000000018
210
0
220
-0
230
1
0
CIRCLE
5
187
100
AcDbEntity
8
0
100
AcDbCircle
10
-128.6936721801757
20
99.207340240478516
30
1.3695577161243477e-06
40
2.0000000000000018
210
0
220
-0
230
1
0
CIRCLE
5
188
100
AcDbEntity
8
0
100
AcDbCircle
10
-224.6936721801757
20
67.207340240478501
30
1.3695577161243477e-06
40
2.0000000000000018
210
0
220
-0
230
1
0
CIRCLE
5
189
100
AcDbEntity
8
0
100
AcDbCircle
10
-224.69367218017572
20
99.207340240478459
30
1.3695577161243477e-06
40
2.0000000000000018
210
0
220
-0
230
1
0
CIRCLE
5
190
100
AcDbEntity
8
0
100
AcDbCircle
10
160.69367218017578
20
307.20734024047852
30
-1.3695577161243477e-06
40
2.0000000000000018
210
0
220
0
230
-1
0
CIRCLE
5
191
100
AcDbEntity
8
0
100
AcDbCircle
10
192.69367218017578
20
267.20734024047852
30
-1.3695577161243477e-06
40
1.9999999999999951
210
0
220
0
230
-1
0
CIRCLE
5
192
100
AcDbEntity
8
0
100
AcDbCircle
10
176.69367218017581
20
307.20734024047852
30
-1.3695577161243477e-06
40
2.0000000000000018
210
0
220
0
230
-1
0
CIRCLE
5
193
100
AcDbEntity
8
0
100
AcDbCircle
10
192.69367218017578
20
251.20734024047849
30
-1.3695577161243477e-06
40
1.9999999999999951
210
0
220
0
230
-1
0
CIRCLE
5
194
100
AcDbEntity
8
0
100
AcDbCircle
10
192.69367218017578
20
283.20734024047846
30
-1.3695577161243477e-06
40
2.0000000000000018
210
0
220
0
230
-1
0
CIRCLE
5
195
100
AcDbEntity
8
0
100
AcDbCircle
10
192.69367218017578
20
307.20734024047852
30
-1.3695577161243477e-06
40
2.0000000000000018
210
0
220
0
230
-1
0
CIRCLE
5
196
100
AcDbEntity
8
0
100
AcDbCircle
10
144.69367218017578
20
307.20734024047852
30
-1.3695577161243477e-06
40
2.0000000000000018
210
0
220
0
230
-1
0
CIRCLE
5
197
100
AcDbEntity
8
0
100
AcDbCircle
10
184.69367218017581
20
339.20734024047846
30
-1.3695577161243477e-06
40
2.0000000000000018
210
0
220
0
230
-1
0
CIRCLE
5
198
100
AcDbEntity
8
0
100
AcDbCircle
10
192.69367218017581
20
339.20734024047846
30
-1.3695577161243477e-06
40
2.0000000000000018
210
0
220
0
230
-1
0
CIRCLE
5
199
100
AcDbEntity
8
0
100
AcDbCircle
10
224.69367218017581
20
299.20734024047846
30
-1.3695577161243477e-06
40
2.0000000000000018
210
0
220
0
230
-1
0
CIRCLE
5
200
100
AcDbEntity
8
0
100
AcDbCircle
10
224.69367218017581
20
219.20734024047852
30
-1.3695577161243477e-06
40
1.9999999999999969
210
0
220
0
230
-1
0
CIRCLE
5
201
100
AcDbEntity
8
0
100
AcDbCircle
10
192.69367218017575
20
219.20734024047849
30
-1.3695577161243477e-06
40
1.9999999999999969
210
0
220
0
230
-1
0
CIRCLE
5
202
100
AcDbEntity
8
0
100
AcDbCircle
10
128.69367218017581
20
339.20734024047846
30
-1.3695577161243477e-06
40
2.0000000000000018
210
0
220
0
230
-1
0
CIRCLE
5
203
100
AcDbEntity
8
0
100
AcDbCircle
10
128.69367218017578
20
307.20734024047852
30
-1.3695577161243477e-06
40
2.0000000000000018
210
0
220
0
230
-1
0
CIRCLE
5
204
100
AcDbEntity
8
0
100
AcDbCircle
10
224.69367218017581
20
339.20734024047846
30
-1.3695577161243477e-06
40
2.0000000000000018
210
0
220
0
230
-1
0
CIRCLE
5
205
100
AcDbEntity
8
0
100
AcDbCircle
10
224.69367218017581
20
307.20734024047852
30
-1.3695577161243477e-06
40
2.0000000000000018
210
0
220
0
230
-1
0
CIRCLE
5
206
100
AcDbEntity
8
0
100
AcDbCircle
10
112.69367218017578
20
83.207340240478516
30
-1.3695577161243477e-06
40
7.0000000000000204
210
0
220
0
230
-1
0
ENDSEC
0
SECTION
2
OBJECTS
0
DICTIONARY
5
C
100
AcDbDictionary
3
ACAD_GROUP
350
D
3
ACAD_MLINESTYLE
350
17
0
DICTIONARY
5
D
100
AcDbDictionary
0
DICTIONARY
5
1A
330
C
100
AcDbDictionary
0
DICTIONARY
5
17
100
AcDbDictionary
0
ENDSEC
0
EOF
