0
SECTION
2
HEADER
9
$INSUNITS
70
4
9
$ACADVER
1
AC1014
9
$HANDSEED
5
FFFF
0
ENDSEC
0
SECTION
2
TABLES
0
TABLE
2
VPORT
5
8
100
AcDbSymbolTable
0
ENDTAB
0
TABLE
2
LTYPE
5
5
100
AcDbSymbolTable
0
LTYPE
5
14
100
AcDbSymbolTableRecord
100
AcDbLinetypeTableRecord
2
BYBLOCK
70
0
0
LTYPE
5
15
100
AcDbSymbolTableRecord
100
AcDbLinetypeTableRecord
2
BYLAYER
70
0
0
ENDTAB
0
TABLE
2
LAYER
5
2
100
AcDbSymbolTable
70
2
0
LAYER
5
50
100
AcDbSymbolTableRecord
100
AcDbLayerTableRecord
2
0
70
0
6
CONTINUOUS
0
ENDTAB
0
TABLE
2
STYLE
5
3
100
AcDbSymbolTable
70
1
0
STYLE
5
11
100
AcDbSymbolTableRecord
100
AcDbTextStyleTableRecord
2
STANDARD
70
0
0
ENDTAB
0
TABLE
2
VIEW
5
6
100
AcDbSymbolTable
70
0
0
ENDTAB
0
TABLE
2
UCS
5
7
100
AcDbSymbolTable
70
0
0
ENDTAB
0
TABLE
2
APPID
5
9
100
AcDbSymbolTable
70
2
0
APPID
5
12
100
AcDbSymbolTableRecord
100
AcDbRegAppTableRecord
2
ACAD
70
0
0
ENDTAB
0
TABLE
2
DIMSTYLE
5
A
100
AcDbSymbolTable
70
1
0
ENDTAB
0
TABLE
2
BLOCK_RECORD
5
1
100
AcDbSymbolTable
70
1
0
BLOCK_RECORD
5
1F
100
AcDbSymbolTableRecord
100
AcDbBlockTableRecord
2
*MODEL_SPACE
0
BLOCK_RECORD
5
1B
100
AcDbSymbolTableRecord
100
AcDbBlockTableRecord
2
*PAPER_SPACE
0
ENDTAB
0
ENDSEC
0
SECTION
2
BLOCKS
0
BLOCK
5
20
100
AcDbEntity
100
AcDbBlockBegin
2
*MODEL_SPACE
0
ENDBLK
5
21
100
AcDbEntity
100
AcDbBlockEnd
0
BLOCK
5
1C
100
AcDbEntity
100
AcDbBlockBegin
2
*PAPER_SPACE
0
ENDBLK
5
1D
100
AcDbEntity
100
AcDbBlockEnd
0
ENDSEC
0
SECTION
2
ENTITIES
0
LWPOLYLINE
5
100
100
AcDbEntity
8
0
100
AcDbPolyline
90
24
70
1
43
0.0
10
55.999999999999929
20
-236.34314575050769
10
55.999999999999957
20
-174.0000000000002
10
51.999999999999972
20
-170.00000000000011
10
51.999999999999972
20
-122.00000000000006
10
55.999999999999957
20
-117.99999999999997
10
55.999999999999957
20
-55.656854249492476
10
50.34314575050756
20
-50.000000000000107
10
11.999999999999975
20
-50.000000000000107
10
7.9999999999999893
20
-54.000000000000057
10
-39.999999999999915
20
-54.000000000000021
10
-43.999999999999901
20
-50.000000000000071
10
-82.343145750507517
20
-50.000000000000071
10
-87.999999999999886
20
-55.65685424949244
10
-87.999999999999957
20
-117.99999999999994
10
-83.999999999999972
20
-122.00000000000003
10
-83.999999999999972
20
-170.00000000000006
10
-87.999999999999957
20
-174.00000000000017
10
-87.999999999999957
20
-236.34314575050766
10
-82.343145750507588
20
-242.00000000000003
10
-43.999999999999972
20
-242.00000000000003
10
-40.000000000000057
20
-238.00000000000009
10
7.9999999999999893
20
-238.00000000000011
10
11.999999999999975
20
-242.00000000000006
10
50.343145750507517
20
-242.00000000000006
0
LWPOLYLINE
5
101
100
AcDbEntity
8
0
100
AcDbPolyline
90
8
70
1
43
0.0
10
99.999999999999943
20
-290.00000000000006
10
-132
20
-290.00000000000006
10
-136.00000000000006
20
-286
10
-135.99999999999991
20
-6.0000000000000888
10
-131.99999999999994
20
-2.0000000000000324
10
100.00000000000001
20
-2.0000000000001039
10
104
20
-6.0000000000000853
10
104
20
-286.00000000000006
0
ARC
5
102
100
AcDbEntity
8
0
100
AcDbCircle
10
-24.48528137423855
20
-257.51471862576147
30
8.8817841970012523e-15
40
2.00000000000004
210
0
220
-0
230
1
100
AcDbArc
50
45.000000000000931
51
225
0
LINE
5
103
100
AcDbEntity
8
0
100
AcDbLine
10
-23.071067811865433
20
-256.10050506338831
30
8.8817841970012523e-15
11
-22.585786437626876
21
-256.58578643762695
31
8.8817841970012523e-15
0
ARC
5
104
100
AcDbEntity
8
0
100
AcDbCircle
10
-23.999999999999968
20
-258.00000000000006
30
8.8817841970012523e-15
40
2.0000000000000306
210
0
220
0
230
1
100
AcDbArc
50
-134.99999999999886
51
45.000000000000291
0
LINE
5
105
100
AcDbEntity
8
0
100
AcDbLine
10
-25.414213562373074
20
-259.41421356237322
30
8.8817841970012523e-15
11
-25.899494936611656
21
-258.92893218813458
31
8.8817841970012523e-15
0
LWPOLYLINE
5
106
100
AcDbEntity
8
0
100
AcDbPolyline
90
4
70
1
43
0.0
10
-23.071067811865515
20
-275.89949493661169
42
-0.99999999999999989
10
-25.899494936611728
20
-273.07106781186553
10
-25.414213562373131
20
-272.58578643762695
42
-0.99999999999999989
10
-22.585786437626947
20
-275.41421356237316
0
LWPOLYLINE
5
107
100
AcDbEntity
8
0
100
AcDbPolyline
90
4
70
1
43
0.0
10
-102.10050506338828
20
-153.07106781186553
42
-0.99999999999999989
10
-104.9289321881345
20
-155.89949493661172
10
-105.41421356237308
20
-155.41421356237313
42
-0.99999999999999989
10
-102.58578643762687
20
-152.58578643762695
0
LWPOLYLINE
5
108
100
AcDbEntity
8
0
100
AcDbPolyline
90
4
70
1
43
0.0
10
-119.07106781186548
20
-155.89949493661175
42
-0.99999999999999989
10
-121.89949493661166
20
-153.07106781186553
10
-121.41421356237309
20
-152.58578643762695
42
-0.99999999999999989
10
-118.58578643762687
20
-155.41421356237316
0
ARC
5
109
100
AcDbEntity
8
0
100
AcDbCircle
10
-24.485281374238479
20
-34.485281374238717
30
-8.8817841970012523e-15
40
2.0000000000000306
210
0
220
0
230
1
100
AcDbArc
50
134.9999999999996
51
315.00000000000006
0
LINE
5
110
100
AcDbEntity
8
0
100
AcDbLine
10
-25.899494936611585
20
-33.071067811865589
30
-8.8817841970012523e-15
11
-25.41421356237306
21
-32.585786437626972
31
-8.8817841970012523e-15
0
ARC
5
111
100
AcDbEntity
8
0
100
AcDbCircle
10
-23.999999999999968
20
-34.000000000000099
30
-8.8817841970012523e-15
40
2.0000000000000275
210
0
220
0
230
1
100
AcDbArc
50
-45.000000000000462
51
134.99999999999929
0
LINE
5
112
100
AcDbEntity
8
0
100
AcDbLine
10
-22.585786437626862
20
-35.414213562373227
30
-8.8817841970012523e-15
11
-23.071067811865362
21
-35.899494936611831
31
-8.8817841970012523e-15
0
ARC
5
113
100
AcDbEntity
8
0
100
AcDbCircle
10
-24.48528137423855
20
-17.514718625761535
30
6.6613381477509392e-15
40
2.0000000000000022
210
3.9252311467093969e-16
220
3.9252311467094708e-16
230
1
100
AcDbArc
50
45.000000000000568
51
224.99999999999963
0
LINE
5
114
100
AcDbEntity
8
0
100
AcDbLine
10
-23.071067811865468
20
-16.100505063388425
30
5.5511151231257827e-15
11
-22.585786437626805
21
-16.585786437626954
31
5.5511151231257827e-15
0
ARC
5
115
100
AcDbEntity
8
0
100
AcDbCircle
10
-23.999999999999968
20
-18.000000000000117
30
6.6613381477509392e-15
40
2.0000000000000306
210
0
220
0
230
1
100
AcDbArc
50
-135.00000000000102
51
45
0
LINE
5
116
100
AcDbEntity
8
0
100
AcDbLine
10
-25.41421356237311
20
-19.414213562373209
30
6.6613381477509392e-15
11
-25.899494936611656
21
-18.928932188134624
31
6.6613381477509392e-15
0
LWPOLYLINE
5
117
100
AcDbEntity
8
0
100
AcDbPolyline
90
4
70
1
43
0.0
10
-104.92893218813448
20
-136.10050506338837
42
-0.99999999999999989
10
-102.1005050633883
20
-138.92893218813458
10
-102.58578643762688
20
-139.41421356237316
42
-0.99999999999999989
10
-105.41421356237306
20
-136.58578643762692
0
LWPOLYLINE
5
118
100
AcDbEntity
8
0
100
AcDbPolyline
90
4
70
1
43
0.0
10
-121.89949493661166
20
-138.92893218813452
42
-0.99999999999999989
10
-119.07106781186548
20
-136.10050506338834
10
-118.58578643762687
20
-136.58578643762692
42
-0.99999999999999989
10
-121.41421356237309
20
-139.41421356237313
0
LWPOLYLINE
5
119
100
AcDbEntity
8
0
100
AcDbPolyline
90
4
70
1
43
0.0
10
-8.9289321881345494
20
-256.10050506338831
42
-0.99999999999999989
10
-6.1005050633883373
20
-258.92893218813458
10
-6.5857864376269166
20
-259.41421356237322
42
-0.99999999999999989
10
-9.4142135623731331
20
-256.58578643762695
0
LWPOLYLINE
5
120
100
AcDbEntity
8
0
100
AcDbPolyline
90
4
70
1
43
0.0
10
-6.1005050633883613
20
-273.07106781186548
42
-0.99999999999999989
10
-8.9289321881345245
20
-275.89949493661175
10
-9.4142135623731633
20
-275.41421356237316
42
-0.99999999999999989
10
-6.5857864376268864
20
-272.58578643762695
0
LWPOLYLINE
5
121
100
AcDbEntity
8
0
100
AcDbPolyline
90
4
70
1
43
0.0
10
72.928932188134482
20
-155.89949493661177
42
-0.99999999999999989
10
70.100505063388297
20
-153.07106781186553
10
70.585786437626922
20
-152.58578643762698
42
-0.99999999999999989
10
73.414213562373106
20
-155.41421356237319
0
LWPOLYLINE
5
122
100
AcDbEntity
8
0
100
AcDbPolyline
90
4
70
1
43
0.0
10
89.89949493661166
20
-153.07106781186559
42
-0.99999999999999989
10
87.071067811865476
20
-155.89949493661177
10
86.585786437626879
20
-155.41421356237319
42
-0.99999999999999989
10
89.414213562373106
20
-152.58578643762698
0
LWPOLYLINE
5
123
100
AcDbEntity
8
0
100
AcDbPolyline
90
4
70
1
43
0.0
10
-6.1005050633883231
20
-33.071067811865603
42
-0.99999999999999989
10
-8.9289321881345636
20
-35.899494936611831
10
-9.4142135623731331
20
-35.414213562373227
42
-0.99999999999999989
10
-6.5857864376269166
20
-32.585786437626979
0
ARC
5
124
100
AcDbEntity
8
0
100
AcDbCircle
10
-7.5147186257613718
20
-17.514718625761535
30
6.6613381477509392e-15
40
2.0000000000000009
210
0
220
0
230
1
100
AcDbArc
50
-44.999999999999751
51
134.99999999999943
0
LINE
5
125
100
AcDbEntity
8
0
100
AcDbLine
10
-6.1005050633882707
20
-18.928932188134624
30
6.6613381477509392e-15
11
-6.5857864376268616
21
-19.414213562373174
31
6.6613381477509392e-15
0
ARC
5
126
100
AcDbEntity
8
0
100
AcDbCircle
10
-8.0000000000000249
20
-18.000000000000117
30
6.6613381477509392e-15
40
2.0000000000000306
210
-3.9252311467093042e-16
220
3.9252311467094521e-16
230
1
100
AcDbArc
50
134.99999999999886
51
315.00000000000216
0
LINE
5
127
100
AcDbEntity
8
0
100
AcDbLine
10
-9.4142135623731154
20
-16.585786437626972
30
5.5511151231257827e-15
11
-8.9289321881344534
21
-16.100505063388425
31
5.5511151231257827e-15
0
LWPOLYLINE
5
128
100
AcDbEntity
8
0
100
AcDbPolyline
90
4
70
1
43
0.0
10
70.100505063388283
20
-138.92893218813461
42
-0.99999999999999989
10
72.928932188134496
20
-136.10050506338843
10
73.414213562373121
20
-136.58578643762698
42
-0.99999999999999989
10
70.585786437626894
20
-139.41421356237316
0
LWPOLYLINE
5
129
100
AcDbEntity
8
0
100
AcDbPolyline
90
4
70
1
43
0.0
10
87.071067811865476
20
-136.1005050633884
42
-0.99999999999999989
10
89.89949493661166
20
-138.92893218813458
10
89.414213562373106
20
-139.41421356237319
42
-0.99999999999999989
10
86.585786437626879
20
-136.58578643762698
0
CIRCLE
5
130
100
AcDbEntity
8
0
100
AcDbCircle
10
-96
20
-226.00000000000006
30
-1.1102230246251565e-15
40
2.0000000000000018
210
0
220
0
230
1
0
CIRCLE
5
131
100
AcDbEntity
8
0
100
AcDbCircle
10
63.999999999999972
20
-226.00000000000009
30
-1.1102230246251565e-15
40
2.0000000000000018
210
0
220
0
230
1
0
CIRCLE
5
132
100
AcDbEntity
8
0
100
AcDbCircle
10
-128.00000000000003
20
-250.00000000000006
30
7.7715611723760958e-15
40
2.0000000000000018
210
0
220
0
230
1
0
CIRCLE
5
133
100
AcDbEntity
8
0
100
AcDbCircle
10
-128.00000000000003
20
-282
30
-5.5511151231257827e-15
40
2.0000000000000018
210
0
220
0
230
1
0
CIRCLE
5
134
100
AcDbEntity
8
0
100
AcDbCircle
10
-32.000000000000014
20
-250.00000000000006
30
7.7715611723760958e-15
40
2.0000000000000018
210
0
220
0
230
1
0
CIRCLE
5
135
100
AcDbEntity
8
0
100
AcDbCircle
10
-96
20
-162.00000000000006
30
2.2204460492503131e-15
40
1.9999999999999969
210
0
220
0
230
1
0
CIRCLE
5
136
100
AcDbEntity
8
0
100
AcDbCircle
10
-128.00000000000003
20
-162.00000000000006
30
2.2204460492503131e-15
40
1.9999999999999969
210
0
220
0
230
1
0
CIRCLE
5
137
100
AcDbEntity
8
0
100
AcDbCircle
10
-112.00000000000003
20
-250.00000000000003
30
7.7715611723760958e-15
40
2.0000000000000018
210
0
220
0
230
1
0
CIRCLE
5
138
100
AcDbEntity
8
0
100
AcDbCircle
10
-96
20
-282
30
-5.5511151231257827e-15
40
2.0000000000000018
210
0
220
0
230
1
0
CIRCLE
5
139
100
AcDbEntity
8
0
100
AcDbCircle
10
-112.00000000000003
20
-282
30
-5.5511151231257827e-15
40
2.0000000000000018
210
0
220
0
230
1
0
CIRCLE
5
140
100
AcDbEntity
8
0
100
AcDbCircle
10
-48.000000000000028
20
-250.00000000000006
30
7.7715611723760958e-15
40
2.0000000000000018
210
0
220
0
230
1
0
CIRCLE
5
141
100
AcDbEntity
8
0
100
AcDbCircle
10
-96
20
-250.00000000000006
30
7.7715611723760958e-15
40
2.0000000000000018
210
0
220
0
230
1
0
CIRCLE
5
142
100
AcDbEntity
8
0
100
AcDbCircle
10
-80.000000000000057
20
-250.00000000000003
30
7.7715611723760958e-15
40
2.0000000000000018
210
0
220
0
230
1
0
CIRCLE
5
143
100
AcDbEntity
8
0
100
AcDbCircle
10
-96
20
-210.00000000000003
30
-3.3306690738754696e-15
40
1.9999999999999951
210
0
220
2.4651903288156619e-32
230
1
0
CIRCLE
5
144
100
AcDbEntity
8
0
100
AcDbCircle
10
-63.999999999999972
20
-250.00000000000006
30
7.7715611723760958e-15
40
2.0000000000000018
210
0
220
0
230
1
0
CIRCLE
5
145
100
AcDbEntity
8
0
100
AcDbCircle
10
-127.99999999999996
20
-42.000000000000028
30
-3.3306690738754696e-15
40
2.0000000000000018
210
0
220
0
230
1
0
CIRCLE
5
146
100
AcDbEntity
8
0
100
AcDbCircle
10
-127.99999999999989
20
-10.000000000000073
30
4.4408920985006262e-15
40
2.0000000000000018
210
0
220
0
230
1
0
CIRCLE
5
147
100
AcDbEntity
8
0
100
AcDbCircle
10
-31.99999999999994
20
-42.000000000000064
30
-3.3306690738754696e-15
40
2.0000000000000018
210
0
220
0
230
1
0
CIRCLE
5
148
100
AcDbEntity
8
0
100
AcDbCircle
10
-95.999999999999929
20
-130.00000000000006
30
-2.2204460492503131e-15
40
1.9999999999999969
210
0
220
0
230
1
0
CIRCLE
5
149
100
AcDbEntity
8
0
100
AcDbCircle
10
-127.99999999999996
20
-130
30
-2.2204460492503131e-15
40
1.9999999999999969
210
0
220
0
230
1
0
CIRCLE
5
150
100
AcDbEntity
8
0
100
AcDbCircle
10
-111.99999999999996
20
-42.000000000000036
30
-3.3306690738754696e-15
40
2.0000000000000018
210
0
220
0
230
1
0
CIRCLE
5
151
100
AcDbEntity
8
0
100
AcDbCircle
10
-95.999999999999929
20
-10.000000000000108
30
4.4408920985006262e-15
40
2.0000000000000018
210
0
220
0
230
1
0
CIRCLE
5
152
100
AcDbEntity
8
0
100
AcDbCircle
10
-111.99999999999989
20
-10.000000000000108
30
4.4408920985006262e-15
40
2.0000000000000018
210
0
220
0
230
1
0
CIRCLE
5
153
100
AcDbEntity
8
0
100
AcDbCircle
10
-47.999999999999957
20
-42.000000000000064
30
-3.3306690738754696e-15
40
2.0000000000000018
210
0
220
0
230
1
0
CIRCLE
5
154
100
AcDbEntity
8
0
100
AcDbCircle
10
-95.999999999999858
20
-42.000000000000028
30
-3.3306690738754696e-15
40
2.0000000000000018
210
0
220
0
230
1
0
CIRCLE
5
155
100
AcDbEntity
8
0
100
AcDbCircle
10
-79.999999999999915
20
-42.000000000000064
30
-3.3306690738754696e-15
40
2.0000000000000018
210
0
220
0
230
1
0
CIRCLE
5
156
100
AcDbEntity
8
0
100
AcDbCircle
10
-95.999999999999929
20
-82.000000000000028
30
3.3306690738754696e-15
40
1.9999999999999951
210
0
220
2.4651903288156619e-32
230
1
0
CIRCLE
5
157
100
AcDbEntity
8
0
100
AcDbCircle
10
-63.999999999999972
20
-42.000000000000064
30
-3.3306690738754696e-15
40
2.0000000000000018
210
0
220
0
230
1
0
CIRCLE
5
158
100
AcDbEntity
8
0
100
AcDbCircle
10
95.999999999999957
20
-250.00000000000011
30
7.7715611723760958e-15
40
2.0000000000000018
210
0
220
0
230
1
0
CIRCLE
5
159
100
AcDbEntity
8
0
100
AcDbCircle
10
95.999999999999957
20
-282.00000000000006
30
-5.5511151231257827e-15
40
2.0000000000000018
210
0
220
0
230
1
0
CIRCLE
5
160
100
AcDbEntity
8
0
100
AcDbCircle
10
-5.3290705182007514e-14
20
-250.00000000000006
30
7.7715611723760958e-15
40
2.0000000000000018
210
0
220
0
230
1
0
CIRCLE
5
161
100
AcDbEntity
8
0
100
AcDbCircle
10
63.999999999999972
20
-162.00000000000011
30
2.2204460492503131e-15
40
1.9999999999999969
210
0
220
0
230
1
0
CIRCLE
5
162
100
AcDbEntity
8
0
100
AcDbCircle
10
96
20
-162.00000000000014
30
2.2204460492503131e-15
40
1.9999999999999969
210
0
220
0
230
1
0
CIRCLE
5
163
100
AcDbEntity
8
0
100
AcDbCircle
10
79.999999999999972
20
-250.00000000000011
30
7.7715611723760958e-15
40
2.0000000000000018
210
0
220
0
230
1
0
CIRCLE
5
164
100
AcDbEntity
8
0
100
AcDbCircle
10
63.999999999999972
20
-282.00000000000006
30
-5.5511151231257827e-15
40
2.0000000000000018
210
0
220
0
230
1
0
CIRCLE
5
165
100
AcDbEntity
8
0
100
AcDbCircle
10
79.999999999999972
20
-282.00000000000006
30
-5.5511151231257827e-15
40
2.0000000000000018
210
0
220
0
230
1
0
CIRCLE
5
166
100
AcDbEntity
8
0
100
AcDbCircle
10
15.999999999999961
20
-250.00000000000006
30
7.7715611723760958e-15
40
2.0000000000000018
210
0
220
0
230
1
0
CIRCLE
5
167
100
AcDbEntity
8
0
100
AcDbCircle
10
63.999999999999929
20
-250.00000000000011
30
7.7715611723760958e-15
40
2.0000000000000018
210
0
220
0
230
1
0
CIRCLE
5
168
100
AcDbEntity
8
0
100
AcDbCircle
10
47.999999999999957
20
-250.00000000000006
30
7.7715611723760958e-15
40
2.0000000000000018
210
0
220
0
230
1
0
CIRCLE
5
169
100
AcDbEntity
8
0
100
AcDbCircle
10
63.999999999999972
20
-210.00000000000011
30
-3.3306690738754696e-15
40
1.9999999999999951
210
0
220
2.4651903288156619e-32
230
1
0
CIRCLE
5
170
100
AcDbEntity
8
0
100
AcDbCircle
10
31.999999999999975
20
-250.00000000000006
30
7.7715611723760958e-15
40
2.0000000000000018
210
0
220
0
230
1
0
CIRCLE
5
171
100
AcDbEntity
8
0
100
AcDbCircle
10
96
20
-42.000000000000064
30
-3.3306690738754696e-15
40
2.0000000000000018
210
0
220
0
230
1
0
CIRCLE
5
172
100
AcDbEntity
8
0
100
AcDbCircle
10
96
20
-10.000000000000144
30
4.4408920985006262e-15
40
2.0000000000000018
210
0
220
0
230
1
0
CIRCLE
5
173
100
AcDbEntity
8
0
100
AcDbCircle
10
-5.3290705182007514e-14
20
-42.000000000000099
30
-3.3306690738754696e-15
40
2.0000000000000018
210
0
220
0
230
1
0
CIRCLE
5
174
100
AcDbEntity
8
0
100
AcDbCircle
10
63.999999999999972
20
-130.00000000000009
30
-2.2204460492503131e-15
40
1.9999999999999969
210
0
220
0
230
1
0
CIRCLE
5
175
100
AcDbEntity
8
0
100
AcDbCircle
10
96
20
-130.00000000000006
30
-2.2204460492503131e-15
40
1.9999999999999969
210
0
220
0
230
1
0
CIRCLE
5
176
100
AcDbEntity
8
0
100
AcDbCircle
10
80
20
-42.000000000000071
30
-3.3306690738754696e-15
40
2.0000000000000018
210
0
220
0
230
1
0
CIRCLE
5
177
100
AcDbEntity
8
0
100
AcDbCircle
10
64
20
-10.000000000000144
30
4.4408920985006262e-15
40
2.0000000000000018
210
0
220
0
230
1
0
CIRCLE
5
178
100
AcDbEntity
8
0
100
AcDbCircle
10
80
20
-10.000000000000146
30
4.4408920985006262e-15
40
2.0000000000000018
210
0
220
0
230
1
0
CIRCLE
5
179
100
AcDbEntity
8
0
100
AcDbCircle
10
16.000000000000032
20
-42.000000000000099
30
-3.3306690738754696e-15
40
2.0000000000000018
210
0
220
0
230
1
0
CIRCLE
5
180
100
AcDbEntity
8
0
100
AcDbCircle
10
63.999999999999972
20
-42.000000000000064
30
-3.3306690738754696e-15
40
2.0000000000000018
210
0
220
0
230
1
0
CIRCLE
5
181
100
AcDbEntity
8
0
100
AcDbCircle
10
47.999999999999986
20
-42.000000000000099
30
-3.3306690738754696e-15
40
2.0000000000000018
210
0
220
0
230
1
0
CIRCLE
5
182
100
AcDbEntity
8
0
100
AcDbCircle
10
63.999999999999972
20
-82.000000000000057
30
3.3306690738754696e-15
40
1.9999999999999951
210
0
220
2.4651903288156619e-32
230
1
0
CIRCLE
5
183
100
AcDbEntity
8
0
100
AcDbCircle
10
31.999999999999975
20
-42.000000000000099
30
-3.3306690738754696e-15
40
2.0000000000000018
210
0
220
0
230
1
0
CIRCLE
5
184
100
AcDbEntity
8
0
100
AcDbCircle
10
63.999999999999972
20
-66.000000000000085
30
0
40
2.0000000000000018
210
0
220
0
230
1
0
CIRCLE
5
185
100
AcDbEntity
8
0
100
AcDbCircle
10
-95.999999999999929
20
-66.000000000000014
30
0
40
2.0000000000000018
210
0
220
0
230
1
0
CIRCLE
5
186
100
AcDbEntity
8
0
100
AcDbCircle
10
-96
20
-98.000000000000043
30
5.5511151231257827e-15
40
1.9999999999999951
210
0
220
2.4651903288156619e-32
230
1
0
CIRCLE
5
187
100
AcDbEntity
8
0
100
AcDbCircle
10
64
20
-98.000000000000085
30
5.5511151231257827e-15
40
1.9999999999999951
210
0
220
2.4651903288156619e-32
230
1
0
CIRCLE
5
188
100
AcDbEntity
8
0
100
AcDbCircle
10
63.999999999999972
20
-194.00000000000009
30
-5.5511151231257827e-15
40
1.9999999999999951
210
0
220
2.4651903288156619e-32
230
1
0
CIRCLE
5
189
100
AcDbEntity
8
0
100
AcDbCircle
10
-96
20
-194.00000000000006
30
-5.5511151231257827e-15
40
1.9999999999999951
210
0
220
2.4651903288156619e-32
230
1
0
ENDSEC
0
SECTION
2
OBJECTS
0
DICTIONARY
5
C
100
AcDbDictionary
3
ACAD_GROUP
350
D
3
ACAD_MLINESTYLE
350
17
0
DICTIONARY
5
D
100
AcDbDictionary
0
DICTIONARY
5
1A
330
C
100
AcDbDictionary
0
DICTIONARY
5
17
100
AcDbDictionary
0
ENDSEC
0
EOF
