0
SECTION
2
HEADER
9
$INSUNITS
70
4
9
$ACADVER
1
AC1014
9
$HANDSEED
5
FFFF
0
ENDSEC
0
SECTION
2
TABLES
0
TABLE
2
VPORT
5
8
100
AcDbSymbolTable
0
ENDTAB
0
TABLE
2
LTYPE
5
5
100
AcDbSymbolTable
0
LTYPE
5
14
100
AcDbSymbolTableRecord
100
AcDbLinetypeTableRecord
2
BYBLOCK
70
0
0
LTYPE
5
15
100
AcDbSymbolTableRecord
100
AcDbLinetypeTableRecord
2
BYLAYER
70
0
0
ENDTAB
0
TABLE
2
LAYER
5
2
100
AcDbSymbolTable
70
2
0
LAYER
5
50
100
AcDbSymbolTableRecord
100
AcDbLayerTableRecord
2
0
70
0
6
CONTINUOUS
0
ENDTAB
0
TABLE
2
STYLE
5
3
100
AcDbSymbolTable
70
1
0
STYLE
5
11
100
AcDbSymbolTableRecord
100
AcDbTextStyleTableRecord
2
STANDARD
70
0
0
ENDTAB
0
TABLE
2
VIEW
5
6
100
AcDbSymbolTable
70
0
0
ENDTAB
0
TABLE
2
UCS
5
7
100
AcDbSymbolTable
70
0
0
ENDTAB
0
TABLE
2
APPID
5
9
100
AcDbSymbolTable
70
2
0
APPID
5
12
100
AcDbSymbolTableRecord
100
AcDbRegAppTableRecord
2
ACAD
70
0
0
ENDTAB
0
TABLE
2
DIMSTYLE
5
A
100
AcDbSymbolTable
70
1
0
ENDTAB
0
TABLE
2
BLOCK_RECORD
5
1
100
AcDbSymbolTable
70
1
0
BLOCK_RECORD
5
1F
100
AcDbSymbolTableRecord
100
AcDbBlockTableRecord
2
*MODEL_SPACE
0
BLOCK_RECORD
5
1B
100
AcDbSymbolTableRecord
100
AcDbBlockTableRecord
2
*PAPER_SPACE
0
ENDTAB
0
ENDSEC
0
SECTION
2
BLOCKS
0
BLOCK
5
20
100
AcDbEntity
100
AcDbBlockBegin
2
*MODEL_SPACE
0
ENDBLK
5
21
100
AcDbEntity
100
AcDbBlockEnd
0
BLOCK
5
1C
100
AcDbEntity
100
AcDbBlockBegin
2
*PAPER_SPACE
0
ENDBLK
5
1D
100
AcDbEntity
100
AcDbBlockEnd
0
ENDSEC
0
SECTION
2
ENTITIES
0
LWPOLYLINE
5
100
100
AcDbEntity
8
0
100
AcDbPolyline
90
24
70
1
43
0.0
10
72
20
28.000000000000096
10
72
20
90.343145750507603
10
66.343145750507603
20
96.000000000000014
10
28.000000000000004
20
96.000000000000014
10
24.000000000000004
20
92.000000000000014
10
-24.000000000000004
20
92.000000000000014
10
-27.999999999999901
20
96.000000000000014
10
-66.343145750507503
20
96.000000000000014
10
-71.999999999999901
20
90.343145750507603
10
-72
20
28.000000000000099
10
-68
20
24.000000000000004
10
-68
20
-24.000000000000004
10
-72
20
-28.000000000000096
10
-72
20
-90.343145750507603
10
-66.343145750507603
20
-96.000000000000014
10
-28.000000000000004
20
-96.000000000000014
10
-24.000000000000004
20
-92.000000000000014
10
24.000000000000004
20
-92.000000000000014
10
27.999999999999901
20
-96.000000000000014
10
66.343145750507503
20
-96.000000000000014
10
71.999999999999901
20
-90.343145750507603
10
71.999999999999901
20
-28.000000000000099
10
68
20
-24.000000000000004
10
68
20
24.000000000000004
0
LWPOLYLINE
5
101
100
AcDbEntity
8
0
100
AcDbPolyline
90
28
70
1
43
0.0
10
116.00000000000001
20
92.000000000000014
10
116.00000000000001
20
28.000000000000004
10
120
20
23.999999999999897
10
120
20
-24.000000000000004
10
116.00000000000001
20
-28.000000000000096
10
116.00000000000001
20
-92.000000000000099
10
120
20
-96.000000000000099
10
120
20
-144
10
116.00000000000001
20
-148
10
116
20
-200
10
-116.00000000000003
20
-200
10
-116.00000000000001
20
-148
10
-120
20
-144
10
-120
20
-96.000000000000014
10
-116.00000000000001
20
-92.000000000000014
10
-116.00000000000001
20
-28.000000000000004
10
-120
20
-24.000000000000004
10
-120
20
24.000000000000004
10
-116.00000000000001
20
28.000000000000007
10
-116.00000000000001
20
92.000000000000014
10
-120
20
96.000000000000099
10
-120
20
144
10
-116.00000000000001
20
148
10
-116.00000000000001
20
200
10
116.00000000000001
20
200
10
116.00000000000001
20
148
10
120
20
144
10
120
20
96.000000000000014
0
ARC
5
102
100
AcDbEntity
8
0
100
AcDbCircle
10
8.4852813742385695
20
111.51471862576102
30
0
40
2.0000000000000275
210
0
220
0
230
1
100
AcDbArc
50
-135.00000000000153
51
45.000000000016875
0
LINE
5
103
100
AcDbEntity
8
0
100
AcDbLine
10
7.071067811865416
20
110.10050506338794
30
0
11
6.5857864376269006
21
110.58578643762701
31
0
0
ARC
5
104
100
AcDbEntity
8
0
100
AcDbCircle
10
8.0000000000000107
20
112.00000000000001
30
0
40
2.0000000000000298
210
0
220
-0
230
1
100
AcDbArc
50
44.999999999997442
51
224.9999999999979
0
LINE
5
105
100
AcDbEntity
8
0
100
AcDbLine
10
9.4142135623731864
20
113.41421356237306
30
0
11
9.8994949366112692
21
112.92893218813455
31
0
0
ARC
5
106
100
AcDbEntity
8
0
100
AcDbCircle
10
8.4852813742386406
20
128.48528137423901
30
0
40
1.9999999999999993
210
0
220
0
230
1
100
AcDbArc
50
-44.999999999998934
51
135.00000000000296
0
LINE
5
107
100
AcDbEntity
8
0
100
AcDbLine
10
9.8994949366117559
20
127.07106781186594
30
0
11
9.4142135623731313
21
126.58578643762701
31
0
0
ARC
5
108
100
AcDbEntity
8
0
100
AcDbCircle
10
8.0000000000000213
20
128
30
0
40
2.0000000000000315
210
0
220
0
230
1
100
AcDbArc
50
135.00000000000261
51
315.00000000000239
0
LINE
5
109
100
AcDbEntity
8
0
100
AcDbLine
10
6.5857864376268429
20
129.41421356237305
30
0
11
7.0710678118654737
21
129.89949493661203
31
0
0
LWPOLYLINE
5
110
100
AcDbEntity
8
0
100
AcDbPolyline
90
4
70
1
43
0.0
10
86.100505063388312
20
7.0710678118654382
42
-0.99999999999999989
10
88.928932188134496
20
9.8994949366116423
10
89.414213562373121
20
9.4142135623730656
42
-0.99999999999999989
10
86.585786437626894
20
6.5857864376268749
0
LWPOLYLINE
5
111
100
AcDbEntity
8
0
100
AcDbPolyline
90
4
70
1
43
0.0
10
103.07106781186593
20
9.8994949366116813
42
-0.99999999999999989
10
105.89949493661206
20
7.0710678118654418
10
105.41421356237306
20
6.5857864376268047
42
-0.99999999999999989
10
102.58578643762695
20
9.4142135623731367
0
ARC
5
112
100
AcDbEntity
8
0
100
AcDbCircle
10
8.4852813742384896
20
-111.51471862576102
30
0
40
2.0000000000000329
210
0
220
0
230
1
100
AcDbArc
50
-45.000000000016847
51
135.00000000000156
0
LINE
5
113
100
AcDbEntity
8
0
100
AcDbLine
10
9.8994949366111911
20
-112.92893218813455
30
0
11
9.4142135623730496
21
-113.41421356237302
31
0
0
ARC
5
114
100
AcDbEntity
8
0
100
AcDbCircle
10
7.9999999999999307
20
-112.00000000000001
30
0
40
2.0000000000000284
210
0
220
0
230
1
100
AcDbArc
50
135.00000000000225
51
315.00000000000227
0
LINE
5
115
100
AcDbEntity
8
0
100
AcDbLine
10
6.5857864376267568
20
-110.58578643762695
30
0
11
7.0710678118653352
21
-110.10050506338794
31
0
0
LWPOLYLINE
5
116
100
AcDbEntity
8
0
100
AcDbPolyline
90
4
70
1
43
0.0
10
9.8994949366117186
20
-127.07106781186599
42
-0.99999999999999989
10
7.0710678118653822
20
-129.89949493661203
10
6.5857864376267568
20
-129.41421356237305
42
-0.99999999999999989
10
9.4142135623731029
20
-126.58578643762695
0
LWPOLYLINE
5
117
100
AcDbEntity
8
0
100
AcDbPolyline
90
4
70
1
43
0.0
10
88.928932188134496
20
-9.8994949366116973
42
-0.99999999999999989
10
86.100505063388312
20
-7.0710678118655039
10
86.585786437626922
20
-6.5857864376269193
42
-0.99999999999999989
10
89.414213562373106
20
-9.414213562373142
0
ARC
5
118
100
AcDbEntity
8
0
100
AcDbCircle
10
104.48528137423899
20
-8.4852813742386299
30
0
40
1.9999999999999925
210
0
220
0
230
1
100
AcDbArc
50
-135.00000000001805
51
45.000000000001151
0
LINE
5
119
100
AcDbEntity
8
0
100
AcDbLine
10
103.07106781186546
20
-9.8994949366112728
30
0
11
102.58578643762701
21
-9.4142135623731598
31
0
0
ARC
5
120
100
AcDbEntity
8
0
100
AcDbCircle
10
104
20
-8.0000000000000409
30
0
40
2.0000000000000173
210
0
220
-0
230
1
100
AcDbArc
50
45.00000000000189
51
225.00000000000253
0
LINE
5
121
100
AcDbEntity
8
0
100
AcDbLine
10
105.41421356237306
20
-6.5857864376268838
30
0
11
105.89949493661206
21
-7.0710678118655093
31
0
0
LWPOLYLINE
5
122
100
AcDbEntity
8
0
100
AcDbPolyline
90
4
70
1
43
0.0
10
-7.071067811865821
20
110.10050506338749
42
-0.99999999999999989
10
-9.8994949366112195
20
112.92893218813455
10
-9.4142135623731367
20
113.41421356237306
42
-0.99999999999999989
10
-6.5857864376267852
20
110.58578643762695
0
LWPOLYLINE
5
123
100
AcDbEntity
8
0
100
AcDbPolyline
90
4
70
1
43
0.0
10
-9.8994949366117488
20
127.07106781186599
42
-0.99999999999999989
10
-7.0710678118654124
20
129.89949493661203
10
-6.5857864376267887
20
129.41421356237305
42
-0.99999999999999989
10
-9.4142135623731331
20
126.58578643762695
0
LWPOLYLINE
5
124
100
AcDbEntity
8
0
100
AcDbPolyline
90
4
70
1
43
0.0
10
-88.928932188134496
20
9.8994949366116778
42
-0.99999999999999989
10
-86.100505063388312
20
7.0710678118654835
10
-86.585786437626922
20
6.5857864376269015
42
-0.99999999999999989
10
-89.414213562373106
20
9.4142135623731207
0
ARC
5
125
100
AcDbEntity
8
0
100
AcDbCircle
10
-104.48528137423899
20
8.4852813742386104
30
0
40
1.9999999999999911
210
0
220
-0
230
1
100
AcDbArc
50
44.999999999981974
51
225.00000000000117
0
LINE
5
126
100
AcDbEntity
8
0
100
AcDbLine
10
-103.07106781186546
20
9.8994949366112532
30
0
11
-102.58578643762701
21
9.4142135623731313
31
0
0
ARC
5
127
100
AcDbEntity
8
0
100
AcDbCircle
10
-104
20
8.0000000000000213
30
0
40
2.0000000000000182
210
0
220
0
230
1
100
AcDbArc
50
-134.99999999999807
51
45.000000000002373
0
LINE
5
128
100
AcDbEntity
8
0
100
AcDbLine
10
-105.41421356237306
20
6.5857864376268616
30
0
11
-105.89949493661206
21
7.0710678118654888
31
0
0
LWPOLYLINE
5
129
100
AcDbEntity
8
0
100
AcDbPolyline
90
4
70
1
43
0.0
10
-9.8994949366117062
20
-112.9289321881341
42
-0.99999999999999989
10
-7.0710678118653938
20
-110.10050506338794
10
-6.5857864376268047
20
-110.58578643762695
42
-0.99999999999999989
10
-9.4142135623731562
20
-113.41421356237306
0
ARC
5
130
100
AcDbEntity
8
0
100
AcDbCircle
10
-8.4852813742386104
20
-128.48528137423901
30
0
40
1.9999999999999976
210
0
220
0
230
1
100
AcDbArc
50
135.00000000000102
51
315.00000000000296
0
LINE
5
131
100
AcDbEntity
8
0
100
AcDbLine
10
-9.899494936611724
20
-127.07106781186594
30
0
11
-9.4142135623730994
21
-126.58578643762701
31
0
0
ARC
5
132
100
AcDbEntity
8
0
100
AcDbCircle
10
-7.9999999999999902
20
-128
30
0
40
2.0000000000000315
210
0
220
0
230
1
100
AcDbArc
50
-44.999999999997407
51
135.00000000000236
0
LINE
5
133
100
AcDbEntity
8
0
100
AcDbLine
10
-6.5857864376268127
20
-129.41421356237305
30
0
11
-7.0710678118654435
21
-129.89949493661203
31
0
0
LWPOLYLINE
5
134
100
AcDbEntity
8
0
100
AcDbPolyline
90
4
70
1
43
0.0
10
-86.100505063388312
20
-7.0710678118654595
42
-0.99999999999999989
10
-88.928932188134496
20
-9.8994949366116636
10
-89.414213562373121
20
-9.4142135623730852
42
-0.99999999999999989
10
-86.585786437626894
20
-6.5857864376268953
0
LWPOLYLINE
5
135
100
AcDbEntity
8
0
100
AcDbPolyline
90
4
70
1
43
0.0
10
-103.07106781186593
20
-9.8994949366117151
42
-0.99999999999999989
10
-105.89949493661206
20
-7.0710678118654684
10
-105.41421356237306
20
-6.5857864376268251
42
-0.99999999999999989
10
-102.58578643762695
20
-9.4142135623731562
0
CIRCLE
5
136
100
AcDbEntity
8
0
100
AcDbCircle
10
80
20
80
30
0
40
2
210
0
220
0
230
-1
0
CIRCLE
5
137
100
AcDbEntity
8
0
100
AcDbCircle
10
80
20
80
30
0
40
2
210
0
220
0
230
1
0
CIRCLE
5
138
100
AcDbEntity
8
0
100
AcDbCircle
10
80
20
48.000000000000007
30
0
40
2
210
0
220
0
230
1
0
CIRCLE
5
139
100
AcDbEntity
8
0
100
AcDbCircle
10
80
20
48.000000000000007
30
0
40
2
210
0
220
0
230
-1
0
CIRCLE
5
140
100
AcDbEntity
8
0
100
AcDbCircle
10
-80
20
-80
30
0
40
2
210
0
220
0
230
1
0
CIRCLE
5
141
100
AcDbEntity
8
0
100
AcDbCircle
10
-79.999999999999901
20
-80.000000000000114
30
0
40
2
210
0
220
0
230
-1
0
CIRCLE
5
142
100
AcDbEntity
8
0
100
AcDbCircle
10
-72
20
-136
30
0
40
2
210
0
220
0
230
1
0
CIRCLE
5
143
100
AcDbEntity
8
0
100
AcDbCircle
10
72
20
136
30
0
40
2
210
0
220
0
230
1
0
CIRCLE
5
144
100
AcDbEntity
8
0
100
AcDbCircle
10
0
20
-120
30
0
40
7.0000000000000204
210
0
220
0
230
1
0
CIRCLE
5
145
100
AcDbEntity
8
0
100
AcDbCircle
10
112.00000000000001
20
104
30
0
40
2
210
0
220
0
230
1
0
CIRCLE
5
146
100
AcDbEntity
8
0
100
AcDbCircle
10
112.00000000000001
20
136
30
0
40
2
210
0
220
0
230
1
0
CIRCLE
5
147
100
AcDbEntity
8
0
100
AcDbCircle
10
16
20
104
30
0
40
2
210
0
220
0
230
1
0
CIRCLE
5
148
100
AcDbEntity
8
0
100
AcDbCircle
10
16
20
136
30
0
40
2
210
0
220
0
230
1
0
CIRCLE
5
149
100
AcDbEntity
8
0
100
AcDbCircle
10
80
20
16
30
0
40
2
210
0
220
0
230
1
0
CIRCLE
5
150
100
AcDbEntity
8
0
100
AcDbCircle
10
112.00000000000001
20
16
30
0
40
2
210
0
220
0
230
1
0
CIRCLE
5
151
100
AcDbEntity
8
0
100
AcDbCircle
10
112.00000000000001
20
96.000000000000014
30
0
40
2
210
0
220
0
230
1
0
CIRCLE
5
152
100
AcDbEntity
8
0
100
AcDbCircle
10
96.000000000000014
20
136
30
0
40
2
210
0
220
0
230
1
0
CIRCLE
5
153
100
AcDbEntity
8
0
100
AcDbCircle
10
32
20
104
30
0
40
2
210
0
220
0
230
1
0
CIRCLE
5
154
100
AcDbEntity
8
0
100
AcDbCircle
10
96.000000000000014
20
104
30
0
40
2
210
0
220
0
230
1
0
CIRCLE
5
155
100
AcDbEntity
8
0
100
AcDbCircle
10
64
20
104
30
0
40
2
210
0
220
0
230
1
0
CIRCLE
5
156
100
AcDbEntity
8
0
100
AcDbCircle
10
80
20
64
30
0
40
2
210
0
220
0
230
1
0
CIRCLE
5
157
100
AcDbEntity
8
0
100
AcDbCircle
10
48.000000000000007
20
104
30
0
40
2
210
0
220
0
230
1
0
CIRCLE
5
158
100
AcDbEntity
8
0
100
AcDbCircle
10
-112.00000000000001
20
-104
30
0
40
2
210
0
220
0
230
-1
0
CIRCLE
5
159
100
AcDbEntity
8
0
100
AcDbCircle
10
-112.00000000000001
20
-136
30
0
40
2
210
0
220
0
230
-1
0
CIRCLE
5
160
100
AcDbEntity
8
0
100
AcDbCircle
10
-15.999999999999901
20
-104
30
0
40
2
210
0
220
0
230
-1
0
CIRCLE
5
161
100
AcDbEntity
8
0
100
AcDbCircle
10
-15.999999999999901
20
-136
30
0
40
2
210
0
220
0
230
-1
0
CIRCLE
5
162
100
AcDbEntity
8
0
100
AcDbCircle
10
-79.999999999999901
20
-16
30
0
40
2
210
0
220
0
230
-1
0
CIRCLE
5
163
100
AcDbEntity
8
0
100
AcDbCircle
10
-112.00000000000001
20
-16.000000000000099
30
0
40
2
210
0
220
0
230
-1
0
CIRCLE
5
164
100
AcDbEntity
8
0
100
AcDbCircle
10
-112.00000000000001
20
-96.000000000000099
30
0
40
2
210
0
220
0
230
-1
0
CIRCLE
5
165
100
AcDbEntity
8
0
100
AcDbCircle
10
-95.999999999999915
20
-136
30
0
40
2
210
0
220
0
230
-1
0
CIRCLE
5
166
100
AcDbEntity
8
0
100
AcDbCircle
10
-31.999999999999904
20
-104
30
0
40
2
210
0
220
0
230
-1
0
CIRCLE
5
167
100
AcDbEntity
8
0
100
AcDbCircle
10
-95.999999999999915
20
-104
30
0
40
2
210
0
220
0
230
-1
0
CIRCLE
5
168
100
AcDbEntity
8
0
100
AcDbCircle
10
-63.999999999999908
20
-104
30
0
40
2
210
0
220
0
230
-1
0
CIRCLE
5
169
100
AcDbEntity
8
0
100
AcDbCircle
10
-79.999999999999901
20
-64
30
0
40
2
210
0
220
0
230
-1
0
CIRCLE
5
170
100
AcDbEntity
8
0
100
AcDbCircle
10
-47.999999999999901
20
-104
30
0
40
2
210
0
220
0
230
-1
0
CIRCLE
5
171
100
AcDbEntity
8
0
100
AcDbCircle
10
-96.000000000000014
20
-4.6827902060757398e-14
30
0
40
7.0000000000000204
210
0
220
0
230
-1
0
CIRCLE
5
172
100
AcDbEntity
8
0
100
AcDbCircle
10
112.00000000000001
20
104
30
0
40
2
210
0
220
0
230
-1
0
CIRCLE
5
173
100
AcDbEntity
8
0
100
AcDbCircle
10
112.00000000000001
20
136
30
0
40
2
210
0
220
0
230
-1
0
CIRCLE
5
174
100
AcDbEntity
8
0
100
AcDbCircle
10
16
20
104
30
0
40
2
210
0
220
0
230
-1
0
CIRCLE
5
175
100
AcDbEntity
8
0
100
AcDbCircle
10
16
20
136
30
0
40
2
210
0
220
0
230
-1
0
CIRCLE
5
176
100
AcDbEntity
8
0
100
AcDbCircle
10
80
20
16
30
0
40
2
210
0
220
0
230
-1
0
CIRCLE
5
177
100
AcDbEntity
8
0
100
AcDbCircle
10
112.00000000000001
20
16.000000000000099
30
0
40
2
210
0
220
0
230
-1
0
CIRCLE
5
178
100
AcDbEntity
8
0
100
AcDbCircle
10
112.00000000000001
20
96.000000000000014
30
0
40
2
210
0
220
0
230
-1
0
CIRCLE
5
179
100
AcDbEntity
8
0
100
AcDbCircle
10
96
20
136
30
0
40
2
210
0
220
0
230
-1
0
CIRCLE
5
180
100
AcDbEntity
8
0
100
AcDbCircle
10
32
20
104
30
0
40
2
210
0
220
0
230
-1
0
CIRCLE
5
181
100
AcDbEntity
8
0
100
AcDbCircle
10
95.999999999999915
20
104
30
0
40
2
210
0
220
0
230
-1
0
CIRCLE
5
182
100
AcDbEntity
8
0
100
AcDbCircle
10
64
20
104
30
0
40
2
210
0
220
0
230
-1
0
CIRCLE
5
183
100
AcDbEntity
8
0
100
AcDbCircle
10
80
20
64
30
0
40
2
210
0
220
0
230
-1
0
CIRCLE
5
184
100
AcDbEntity
8
0
100
AcDbCircle
10
48.000000000000007
20
104
30
0
40
2
210
0
220
0
230
-1
0
CIRCLE
5
185
100
AcDbEntity
8
0
100
AcDbCircle
10
-112.00000000000001
20
-104
30
0
40
2
210
0
220
0
230
1
0
CIRCLE
5
186
100
AcDbEntity
8
0
100
AcDbCircle
10
-112.00000000000001
20
-136
30
0
40
2
210
0
220
0
230
1
0
CIRCLE
5
187
100
AcDbEntity
8
0
100
AcDbCircle
10
-16
20
-104
30
0
40
2
210
0
220
0
230
1
0
CIRCLE
5
188
100
AcDbEntity
8
0
100
AcDbCircle
10
-16
20
-136
30
0
40
2
210
0
220
0
230
1
0
CIRCLE
5
189
100
AcDbEntity
8
0
100
AcDbCircle
10
-80
20
-16
30
0
40
2
210
0
220
0
230
1
0
CIRCLE
5
190
100
AcDbEntity
8
0
100
AcDbCircle
10
-112.00000000000001
20
-16
30
0
40
2
210
0
220
0
230
1
0
CIRCLE
5
191
100
AcDbEntity
8
0
100
AcDbCircle
10
-112.00000000000001
20
-96.000000000000014
30
0
40
2
210
0
220
0
230
1
0
CIRCLE
5
192
100
AcDbEntity
8
0
100
AcDbCircle
10
-96.000000000000014
20
-136
30
0
40
2
210
0
220
0
230
1
0
CIRCLE
5
193
100
AcDbEntity
8
0
100
AcDbCircle
10
-32
20
-104
30
0
40
2
210
0
220
0
230
1
0
CIRCLE
5
194
100
AcDbEntity
8
0
100
AcDbCircle
10
-96.000000000000014
20
-104
30
0
40
2
210
0
220
0
230
1
0
CIRCLE
5
195
100
AcDbEntity
8
0
100
AcDbCircle
10
-64
20
-104
30
0
40
2
210
0
220
0
230
1
0
CIRCLE
5
196
100
AcDbEntity
8
0
100
AcDbCircle
10
-80
20
-64
30
0
40
2
210
0
220
0
230
1
0
CIRCLE
5
197
100
AcDbEntity
8
0
100
AcDbCircle
10
-48.000000000000007
20
-104
30
0
40
2
210
0
220
0
230
1
0
CIRCLE
5
198
100
AcDbEntity
8
0
100
AcDbCircle
10
-96.000000000000014
20
0
30
0
40
7.0000000000000204
210
0
220
0
230
1
0
CIRCLE
5
199
100
AcDbEntity
8
0
100
AcDbCircle
10
-2.9267438787973397e-14
20
120
30
0
40
7.0000000000000204
210
0
220
0
230
-1
0
CIRCLE
5
200
100
AcDbEntity
8
0
100
AcDbCircle
10
72
20
136
30
0
40
2
210
0
220
0
230
-1
0
CIRCLE
5
201
100
AcDbEntity
8
0
100
AcDbCircle
10
-71.999999999999901
20
-136
30
0
40
2
210
0
220
0
230
-1
0
CIRCLE
5
202
100
AcDbEntity
8
0
100
AcDbCircle
10
-80
20
-48.000000000000007
30
0
40
2
210
0
220
0
230
-1
0
CIRCLE
5
203
100
AcDbEntity
8
0
100
AcDbCircle
10
-80
20
-48.000000000000007
30
0
40
2
210
0
220
0
230
1
0
ENDSEC
0
SECTION
2
OBJECTS
0
DICTIONARY
5
C
100
AcDbDictionary
3
ACAD_GROUP
350
D
3
ACAD_MLINESTYLE
350
17
0
DICTIONARY
5
D
100
AcDbDictionary
0
DICTIONARY
5
1A
330
C
100
AcDbDictionary
0
DICTIONARY
5
17
100
AcDbDictionary
0
ENDSEC
0
EOF
